<svg xmlns="http://www.w3.org/2000/svg" width="16" height="16" viewBox="0 0 16 16">
  <path id="check_circle_FILL1_wght300_GRAD0_opsz24" d="M106.806-848.417l5.662-5.662-.887-.887-4.774,4.774-2.4-2.4-.887.887ZM108-844a7.793,7.793,0,0,1-3.12-.63,8.079,8.079,0,0,1-2.541-1.71,8.077,8.077,0,0,1-1.71-2.54A7.785,7.785,0,0,1,100-852a7.793,7.793,0,0,1,.63-3.12,8.08,8.08,0,0,1,1.71-2.541,8.076,8.076,0,0,1,2.54-1.71A7.785,7.785,0,0,1,108-860a7.793,7.793,0,0,1,3.12.63,8.081,8.081,0,0,1,2.541,1.71,8.077,8.077,0,0,1,1.71,2.54A7.786,7.786,0,0,1,116-852a7.793,7.793,0,0,1-.63,3.12,8.082,8.082,0,0,1-1.71,2.541,8.078,8.078,0,0,1-2.54,1.71A7.785,7.785,0,0,1,108-844Z" transform="translate(-100.001 859.999)" fill="#3b644d"/>
</svg>
