<svg xmlns="http://www.w3.org/2000/svg" width="540.177" height="811.412" viewBox="0 0 540.177 811.412">
  <g id="Group_7234" data-name="Group 7234" transform="translate(0 -88.588)">
    <path id="Path_2301" data-name="Path 2301" d="M-1010,2016s7.167-46.889,31.028-51.429,62.3-1.833,74.636-20.448,8.427-31.83,37.4-58.421,39.121-17.664,77.843-20.787,79.385-79.57,126.748-75.566,64.991,10.212,92.707-8.337,99.81-113.048,99.81-113.048V2016Z" transform="translate(1010 -1116)" fill="#4b47d9"/>
    <path id="Path_2302" data-name="Path 2302" d="M-1010,1886.533s5.482-29.447,23.733-32.3,47.654-1.151,57.089-12.842,6.446-19.99,28.61-36.689,29.923-11.093,59.541-13.054,60.721-49.97,96.949-47.456,49.711,6.413,70.911-5.236,76.344-71,76.344-71v218.571Z" transform="translate(1137 -986.533)" fill="#4541d0"/>
  </g>
  <g id="Group_7233" data-name="Group 7233">
    <path id="Path_2303" data-name="Path 2303" d="M-469.823,1667.962s-7.167,46.889-31.028,51.429-62.3,1.833-74.636,20.448-8.427,31.83-37.4,58.421-39.121,17.664-77.843,20.787-79.385,79.57-126.748,75.566-64.991-10.212-92.707,8.337S-1010,2016-1010,2016V1667.962Z" transform="translate(1010 -1667.962)" fill="#4b47d9"/>
    <path id="Path_2304" data-name="Path 2304" d="M-596.823,1667.962s-5.482,29.447-23.733,32.3-47.654,1.151-57.089,12.842-6.446,19.99-28.61,36.689-29.923,11.093-59.541,13.054-60.721,49.97-96.949,47.456-49.711-6.413-70.911,5.236-76.344,71-76.344,71V1667.962Z" transform="translate(1010 -1667.962)" fill="#4541d0"/>
  </g>
</svg>
